<mxfile host="Electron" agent="Mozilla/5.0 (Macintosh; Intel Mac OS X 10_15_7) AppleWebKit/537.36 (KHTML, like Gecko) draw.io/26.0.9 Chrome/128.0.6613.186 Electron/32.2.5 Safari/537.36" version="26.0.9">
  <diagram name="Page-1" id="Sg_hZRJLPUr5eI2K1Xg5">
    <mxGraphModel dx="1354" dy="799" grid="1" gridSize="10" guides="1" tooltips="1" connect="1" arrows="1" fold="1" page="1" pageScale="1" pageWidth="850" pageHeight="1100" math="0" shadow="0">
      <root>
        <mxCell id="0" />
        <mxCell id="1" parent="0" />
        <mxCell id="7HKfpn0sQZz-MwSm2kJX-3" value="" style="edgeStyle=orthogonalEdgeStyle;rounded=0;orthogonalLoop=1;jettySize=auto;html=1;" edge="1" parent="1" source="7HKfpn0sQZz-MwSm2kJX-1" target="7HKfpn0sQZz-MwSm2kJX-2">
          <mxGeometry relative="1" as="geometry" />
        </mxCell>
        <mxCell id="7HKfpn0sQZz-MwSm2kJX-1" value="client api" style="aspect=fixed;sketch=0;html=1;dashed=0;whitespace=wrap;verticalLabelPosition=bottom;verticalAlign=top;fillColor=#2875E2;strokeColor=#ffffff;points=[[0.005,0.63,0],[0.1,0.2,0],[0.9,0.2,0],[0.5,0,0],[0.995,0.63,0],[0.72,0.99,0],[0.5,1,0],[0.28,0.99,0]];shape=mxgraph.kubernetes.icon2;kubernetesLabel=1;prIcon=api" vertex="1" parent="1">
          <mxGeometry x="410" y="30" width="50" height="48" as="geometry" />
        </mxCell>
        <mxCell id="7HKfpn0sQZz-MwSm2kJX-17" style="edgeStyle=orthogonalEdgeStyle;rounded=0;orthogonalLoop=1;jettySize=auto;html=1;exitX=0.5;exitY=1;exitDx=0;exitDy=0;exitPerimeter=0;entryX=0.5;entryY=0;entryDx=0;entryDy=0;" edge="1" parent="1" source="7HKfpn0sQZz-MwSm2kJX-2" target="7HKfpn0sQZz-MwSm2kJX-6">
          <mxGeometry relative="1" as="geometry">
            <Array as="points">
              <mxPoint x="435" y="240" />
              <mxPoint x="210" y="240" />
            </Array>
          </mxGeometry>
        </mxCell>
        <mxCell id="7HKfpn0sQZz-MwSm2kJX-18" value="priority 1" style="edgeLabel;html=1;align=center;verticalAlign=middle;resizable=0;points=[];" vertex="1" connectable="0" parent="7HKfpn0sQZz-MwSm2kJX-17">
          <mxGeometry x="-0.0667" y="1" relative="1" as="geometry">
            <mxPoint as="offset" />
          </mxGeometry>
        </mxCell>
        <mxCell id="7HKfpn0sQZz-MwSm2kJX-19" style="edgeStyle=orthogonalEdgeStyle;rounded=0;orthogonalLoop=1;jettySize=auto;html=1;exitX=0.5;exitY=1;exitDx=0;exitDy=0;exitPerimeter=0;entryX=0.5;entryY=0;entryDx=0;entryDy=0;" edge="1" parent="1" source="7HKfpn0sQZz-MwSm2kJX-2" target="7HKfpn0sQZz-MwSm2kJX-7">
          <mxGeometry relative="1" as="geometry" />
        </mxCell>
        <mxCell id="7HKfpn0sQZz-MwSm2kJX-20" value="priority 2" style="edgeLabel;html=1;align=center;verticalAlign=middle;resizable=0;points=[];" vertex="1" connectable="0" parent="7HKfpn0sQZz-MwSm2kJX-19">
          <mxGeometry x="0.0294" y="-2" relative="1" as="geometry">
            <mxPoint as="offset" />
          </mxGeometry>
        </mxCell>
        <mxCell id="7HKfpn0sQZz-MwSm2kJX-2" value="traffic manager (Priority Routing)&lt;div&gt;&lt;br&gt;&lt;/div&gt;" style="verticalLabelPosition=bottom;html=1;verticalAlign=top;align=center;strokeColor=none;fillColor=#00BEF2;shape=mxgraph.azure.traffic_manager;pointerEvents=1;" vertex="1" parent="1">
          <mxGeometry x="410" y="130" width="50" height="50" as="geometry" />
        </mxCell>
        <mxCell id="7HKfpn0sQZz-MwSm2kJX-64" style="edgeStyle=orthogonalEdgeStyle;rounded=0;orthogonalLoop=1;jettySize=auto;html=1;exitX=0.5;exitY=0;exitDx=0;exitDy=0;" edge="1" parent="1" source="7HKfpn0sQZz-MwSm2kJX-6" target="7HKfpn0sQZz-MwSm2kJX-31">
          <mxGeometry relative="1" as="geometry" />
        </mxCell>
        <mxCell id="7HKfpn0sQZz-MwSm2kJX-6" value="" style="rounded=1;whiteSpace=wrap;html=1;" vertex="1" parent="1">
          <mxGeometry x="20" y="300" width="380" height="430" as="geometry" />
        </mxCell>
        <mxCell id="7HKfpn0sQZz-MwSm2kJX-7" value="" style="rounded=1;whiteSpace=wrap;html=1;" vertex="1" parent="1">
          <mxGeometry x="470" y="280" width="370" height="440" as="geometry" />
        </mxCell>
        <mxCell id="7HKfpn0sQZz-MwSm2kJX-8" value="vnet-primary" style="verticalLabelPosition=bottom;html=1;verticalAlign=top;align=center;strokeColor=none;fillColor=#00BEF2;shape=mxgraph.azure.virtual_network;pointerEvents=1;" vertex="1" parent="1">
          <mxGeometry x="60" y="290" width="50" height="27.500000000000004" as="geometry" />
        </mxCell>
        <mxCell id="7HKfpn0sQZz-MwSm2kJX-9" value="vnet-dr" style="verticalLabelPosition=bottom;html=1;verticalAlign=top;align=center;strokeColor=none;fillColor=#00BEF2;shape=mxgraph.azure.virtual_network;pointerEvents=1;" vertex="1" parent="1">
          <mxGeometry x="520" y="291" width="50" height="27.500000000000004" as="geometry" />
        </mxCell>
        <mxCell id="7HKfpn0sQZz-MwSm2kJX-15" value="&lt;b&gt;Env-1 Primary EastUS2&lt;/b&gt;" style="text;html=1;align=center;verticalAlign=middle;whiteSpace=wrap;rounded=0;" vertex="1" parent="1">
          <mxGeometry x="150" y="240" width="160" height="50" as="geometry" />
        </mxCell>
        <mxCell id="7HKfpn0sQZz-MwSm2kJX-68" style="edgeStyle=orthogonalEdgeStyle;rounded=0;orthogonalLoop=1;jettySize=auto;html=1;" edge="1" parent="1" source="7HKfpn0sQZz-MwSm2kJX-16" target="7HKfpn0sQZz-MwSm2kJX-28">
          <mxGeometry relative="1" as="geometry">
            <Array as="points">
              <mxPoint x="655" y="300" />
              <mxPoint x="670" y="300" />
            </Array>
          </mxGeometry>
        </mxCell>
        <mxCell id="7HKfpn0sQZz-MwSm2kJX-16" value="&lt;b&gt;Env2- DR Central US&lt;/b&gt;" style="text;html=1;align=center;verticalAlign=middle;resizable=0;points=[];autosize=1;strokeColor=none;fillColor=none;" vertex="1" parent="1">
          <mxGeometry x="585" y="250" width="140" height="30" as="geometry" />
        </mxCell>
        <mxCell id="7HKfpn0sQZz-MwSm2kJX-65" value="" style="edgeStyle=orthogonalEdgeStyle;rounded=0;orthogonalLoop=1;jettySize=auto;html=1;" edge="1" parent="1" source="7HKfpn0sQZz-MwSm2kJX-23" target="7HKfpn0sQZz-MwSm2kJX-56">
          <mxGeometry relative="1" as="geometry" />
        </mxCell>
        <mxCell id="7HKfpn0sQZz-MwSm2kJX-23" value="" style="rounded=1;whiteSpace=wrap;html=1;" vertex="1" parent="1">
          <mxGeometry x="140" y="330" width="120" height="60" as="geometry" />
        </mxCell>
        <mxCell id="7HKfpn0sQZz-MwSm2kJX-26" value="agw-subnet" style="image;aspect=fixed;html=1;points=[];align=center;fontSize=12;image=img/lib/azure2/networking/Subnet.svg;" vertex="1" parent="1">
          <mxGeometry x="182.7" y="318.5" width="34.6" height="20.72" as="geometry" />
        </mxCell>
        <mxCell id="7HKfpn0sQZz-MwSm2kJX-69" value="" style="edgeStyle=orthogonalEdgeStyle;rounded=0;orthogonalLoop=1;jettySize=auto;html=1;" edge="1" parent="1" source="7HKfpn0sQZz-MwSm2kJX-27" target="7HKfpn0sQZz-MwSm2kJX-59">
          <mxGeometry relative="1" as="geometry" />
        </mxCell>
        <mxCell id="7HKfpn0sQZz-MwSm2kJX-27" value="agw-subnet" style="rounded=1;whiteSpace=wrap;html=1;" vertex="1" parent="1">
          <mxGeometry x="610" y="320" width="120" height="60" as="geometry" />
        </mxCell>
        <mxCell id="7HKfpn0sQZz-MwSm2kJX-28" value="" style="image;aspect=fixed;html=1;points=[];align=center;fontSize=12;image=img/lib/azure2/networking/Subnet.svg;" vertex="1" parent="1">
          <mxGeometry x="650" y="309" width="40" height="23.95" as="geometry" />
        </mxCell>
        <mxCell id="7HKfpn0sQZz-MwSm2kJX-31" value="" style="image;sketch=0;aspect=fixed;html=1;points=[];align=center;fontSize=12;image=img/lib/mscae/Application_Gateway.svg;" vertex="1" parent="1">
          <mxGeometry x="182.7" y="360" width="30" height="30" as="geometry" />
        </mxCell>
        <mxCell id="7HKfpn0sQZz-MwSm2kJX-32" value="" style="image;sketch=0;aspect=fixed;html=1;points=[];align=center;fontSize=12;image=img/lib/mscae/Application_Gateway.svg;" vertex="1" parent="1">
          <mxGeometry x="655" y="350" width="30" height="30" as="geometry" />
        </mxCell>
        <mxCell id="7HKfpn0sQZz-MwSm2kJX-67" style="edgeStyle=orthogonalEdgeStyle;rounded=0;orthogonalLoop=1;jettySize=auto;html=1;exitX=0.25;exitY=1;exitDx=0;exitDy=0;entryX=0.5;entryY=0;entryDx=0;entryDy=0;" edge="1" parent="1" source="7HKfpn0sQZz-MwSm2kJX-33" target="7HKfpn0sQZz-MwSm2kJX-39">
          <mxGeometry relative="1" as="geometry" />
        </mxCell>
        <mxCell id="7HKfpn0sQZz-MwSm2kJX-33" value="" style="rounded=1;whiteSpace=wrap;html=1;" vertex="1" parent="1">
          <mxGeometry x="60" y="420" width="300" height="120" as="geometry" />
        </mxCell>
        <mxCell id="7HKfpn0sQZz-MwSm2kJX-70" style="edgeStyle=orthogonalEdgeStyle;rounded=0;orthogonalLoop=1;jettySize=auto;html=1;exitX=0.5;exitY=1;exitDx=0;exitDy=0;" edge="1" parent="1" source="7HKfpn0sQZz-MwSm2kJX-34" target="7HKfpn0sQZz-MwSm2kJX-46">
          <mxGeometry relative="1" as="geometry" />
        </mxCell>
        <mxCell id="7HKfpn0sQZz-MwSm2kJX-34" value="" style="rounded=1;whiteSpace=wrap;html=1;" vertex="1" parent="1">
          <mxGeometry x="510" y="420" width="300" height="110" as="geometry" />
        </mxCell>
        <mxCell id="7HKfpn0sQZz-MwSm2kJX-35" value="aks-subnet" style="image;aspect=fixed;html=1;points=[];align=center;fontSize=12;image=img/lib/azure2/networking/Subnet.svg;" vertex="1" parent="1">
          <mxGeometry x="89.99999999999999" y="410" width="34.6" height="20.72" as="geometry" />
        </mxCell>
        <mxCell id="7HKfpn0sQZz-MwSm2kJX-36" value="aks-subnet" style="image;aspect=fixed;html=1;points=[];align=center;fontSize=12;image=img/lib/azure2/networking/Subnet.svg;" vertex="1" parent="1">
          <mxGeometry x="560" y="410" width="34.6" height="20.72" as="geometry" />
        </mxCell>
        <mxCell id="7HKfpn0sQZz-MwSm2kJX-37" value="" style="rounded=1;whiteSpace=wrap;html=1;" vertex="1" parent="1">
          <mxGeometry x="250" y="590" width="120" height="60" as="geometry" />
        </mxCell>
        <mxCell id="7HKfpn0sQZz-MwSm2kJX-38" value="" style="rounded=1;whiteSpace=wrap;html=1;" vertex="1" parent="1">
          <mxGeometry x="520" y="590" width="120" height="60" as="geometry" />
        </mxCell>
        <mxCell id="7HKfpn0sQZz-MwSm2kJX-39" value="" style="rounded=1;whiteSpace=wrap;html=1;" vertex="1" parent="1">
          <mxGeometry x="50" y="590" width="120" height="60" as="geometry" />
        </mxCell>
        <mxCell id="7HKfpn0sQZz-MwSm2kJX-40" value="" style="rounded=1;whiteSpace=wrap;html=1;" vertex="1" parent="1">
          <mxGeometry x="695" y="590" width="120" height="60" as="geometry" />
        </mxCell>
        <mxCell id="7HKfpn0sQZz-MwSm2kJX-41" value="redis-subnet" style="image;aspect=fixed;html=1;points=[];align=center;fontSize=12;image=img/lib/azure2/networking/Subnet.svg;" vertex="1" parent="1">
          <mxGeometry x="49.999999999999986" y="580" width="34.6" height="20.72" as="geometry" />
        </mxCell>
        <mxCell id="7HKfpn0sQZz-MwSm2kJX-42" value="mysql-subnet" style="image;aspect=fixed;html=1;points=[];align=center;fontSize=12;image=img/lib/azure2/networking/Subnet.svg;" vertex="1" parent="1">
          <mxGeometry x="260" y="580" width="34.6" height="20.72" as="geometry" />
        </mxCell>
        <mxCell id="7HKfpn0sQZz-MwSm2kJX-43" value="mysql-subnet" style="image;aspect=fixed;html=1;points=[];align=center;fontSize=12;image=img/lib/azure2/networking/Subnet.svg;" vertex="1" parent="1">
          <mxGeometry x="527.6999999999999" y="580" width="34.6" height="20.72" as="geometry" />
        </mxCell>
        <mxCell id="7HKfpn0sQZz-MwSm2kJX-44" value="redis-subnet" style="image;aspect=fixed;html=1;points=[];align=center;fontSize=12;image=img/lib/azure2/networking/Subnet.svg;" vertex="1" parent="1">
          <mxGeometry x="710" y="580" width="34.6" height="20.72" as="geometry" />
        </mxCell>
        <mxCell id="7HKfpn0sQZz-MwSm2kJX-45" value="mysql-fs" style="image;sketch=0;aspect=fixed;html=1;points=[];align=center;fontSize=12;image=img/lib/mscae/Azure_Database_for_MySQL_servers.svg;" vertex="1" parent="1">
          <mxGeometry x="322" y="595" width="38" height="50" as="geometry" />
        </mxCell>
        <mxCell id="7HKfpn0sQZz-MwSm2kJX-46" value="mysql-fs-replica" style="image;sketch=0;aspect=fixed;html=1;points=[];align=center;fontSize=12;image=img/lib/mscae/Azure_Database_for_MySQL_servers.svg;" vertex="1" parent="1">
          <mxGeometry x="590" y="595" width="38" height="50" as="geometry" />
        </mxCell>
        <mxCell id="7HKfpn0sQZz-MwSm2kJX-48" style="edgeStyle=orthogonalEdgeStyle;rounded=0;orthogonalLoop=1;jettySize=auto;html=1;entryX=0;entryY=0.5;entryDx=0;entryDy=0;entryPerimeter=0;" edge="1" parent="1" source="7HKfpn0sQZz-MwSm2kJX-45" target="7HKfpn0sQZz-MwSm2kJX-46">
          <mxGeometry relative="1" as="geometry" />
        </mxCell>
        <mxCell id="7HKfpn0sQZz-MwSm2kJX-49" value="cross region&lt;div&gt;read replica&lt;/div&gt;" style="edgeLabel;html=1;align=center;verticalAlign=middle;resizable=0;points=[];" vertex="1" connectable="0" parent="7HKfpn0sQZz-MwSm2kJX-48">
          <mxGeometry x="-0.313" y="1" relative="1" as="geometry">
            <mxPoint x="-4" y="1" as="offset" />
          </mxGeometry>
        </mxCell>
        <mxCell id="7HKfpn0sQZz-MwSm2kJX-50" value="" style="image;aspect=fixed;html=1;points=[];align=center;fontSize=12;image=img/lib/azure2/compute/Kubernetes_Services.svg;" vertex="1" parent="1">
          <mxGeometry x="150" y="410" width="45.33" height="40" as="geometry" />
        </mxCell>
        <mxCell id="7HKfpn0sQZz-MwSm2kJX-51" value="" style="image;aspect=fixed;html=1;points=[];align=center;fontSize=12;image=img/lib/azure2/compute/Kubernetes_Services.svg;" vertex="1" parent="1">
          <mxGeometry x="610" y="410" width="45.33" height="40" as="geometry" />
        </mxCell>
        <mxCell id="7HKfpn0sQZz-MwSm2kJX-52" value="" style="image;sketch=0;aspect=fixed;html=1;points=[];align=center;fontSize=12;image=img/lib/mscae/VM_Scale_Set.svg;" vertex="1" parent="1">
          <mxGeometry x="74.6" y="465" width="50" height="50" as="geometry" />
        </mxCell>
        <mxCell id="7HKfpn0sQZz-MwSm2kJX-54" value="" style="image;sketch=0;aspect=fixed;html=1;points=[];align=center;fontSize=12;image=img/lib/mscae/VM_Scale_Set.svg;" vertex="1" parent="1">
          <mxGeometry x="217.29999999999998" y="465" width="50" height="50" as="geometry" />
        </mxCell>
        <mxCell id="7HKfpn0sQZz-MwSm2kJX-55" value="" style="image;sketch=0;aspect=fixed;html=1;points=[];align=center;fontSize=12;image=img/lib/mscae/VM_Scale_Set.svg;" vertex="1" parent="1">
          <mxGeometry x="285" y="470" width="50" height="50" as="geometry" />
        </mxCell>
        <mxCell id="7HKfpn0sQZz-MwSm2kJX-56" value="" style="image;sketch=0;aspect=fixed;html=1;points=[];align=center;fontSize=12;image=img/lib/mscae/VM_Scale_Set.svg;" vertex="1" parent="1">
          <mxGeometry x="145.32999999999998" y="465" width="50" height="50" as="geometry" />
        </mxCell>
        <mxCell id="7HKfpn0sQZz-MwSm2kJX-57" value="" style="image;sketch=0;aspect=fixed;html=1;points=[];align=center;fontSize=12;image=img/lib/mscae/VM_Scale_Set.svg;" vertex="1" parent="1">
          <mxGeometry x="560" y="465" width="50" height="50" as="geometry" />
        </mxCell>
        <mxCell id="7HKfpn0sQZz-MwSm2kJX-58" value="" style="image;sketch=0;aspect=fixed;html=1;points=[];align=center;fontSize=12;image=img/lib/mscae/VM_Scale_Set.svg;" vertex="1" parent="1">
          <mxGeometry x="620" y="465" width="50" height="50" as="geometry" />
        </mxCell>
        <mxCell id="7HKfpn0sQZz-MwSm2kJX-59" value="" style="image;sketch=0;aspect=fixed;html=1;points=[];align=center;fontSize=12;image=img/lib/mscae/VM_Scale_Set.svg;" vertex="1" parent="1">
          <mxGeometry x="685" y="465" width="50" height="50" as="geometry" />
        </mxCell>
        <mxCell id="7HKfpn0sQZz-MwSm2kJX-60" value="" style="image;sketch=0;aspect=fixed;html=1;points=[];align=center;fontSize=12;image=img/lib/mscae/VM_Scale_Set.svg;" vertex="1" parent="1">
          <mxGeometry x="744.6" y="465" width="50" height="50" as="geometry" />
        </mxCell>
        <mxCell id="7HKfpn0sQZz-MwSm2kJX-61" value="" style="image;sketch=0;aspect=fixed;html=1;points=[];align=center;fontSize=12;image=img/lib/mscae/Azure_Cache_for_Redis.svg;" vertex="1" parent="1">
          <mxGeometry x="110" y="600.72" width="29.28" height="29.28" as="geometry" />
        </mxCell>
        <mxCell id="7HKfpn0sQZz-MwSm2kJX-62" value="" style="image;sketch=0;aspect=fixed;html=1;points=[];align=center;fontSize=12;image=img/lib/mscae/Azure_Cache_for_Redis.svg;" vertex="1" parent="1">
          <mxGeometry x="765.32" y="600.72" width="29.28" height="29.28" as="geometry" />
        </mxCell>
        <mxCell id="7HKfpn0sQZz-MwSm2kJX-66" style="edgeStyle=orthogonalEdgeStyle;rounded=0;orthogonalLoop=1;jettySize=auto;html=1;" edge="1" parent="1" source="7HKfpn0sQZz-MwSm2kJX-33" target="7HKfpn0sQZz-MwSm2kJX-45">
          <mxGeometry relative="1" as="geometry" />
        </mxCell>
        <mxCell id="7HKfpn0sQZz-MwSm2kJX-71" style="edgeStyle=orthogonalEdgeStyle;rounded=0;orthogonalLoop=1;jettySize=auto;html=1;exitX=0.25;exitY=1;exitDx=0;exitDy=0;" edge="1" parent="1">
          <mxGeometry relative="1" as="geometry">
            <mxPoint x="769.6" y="530" as="sourcePoint" />
            <mxPoint x="750" y="590" as="targetPoint" />
            <Array as="points" />
          </mxGeometry>
        </mxCell>
        <mxCell id="7HKfpn0sQZz-MwSm2kJX-72" style="edgeStyle=orthogonalEdgeStyle;rounded=0;orthogonalLoop=1;jettySize=auto;html=1;exitX=0.5;exitY=1;exitDx=0;exitDy=0;" edge="1" parent="1" source="7HKfpn0sQZz-MwSm2kJX-6" target="7HKfpn0sQZz-MwSm2kJX-6">
          <mxGeometry relative="1" as="geometry" />
        </mxCell>
        <mxCell id="7HKfpn0sQZz-MwSm2kJX-73" value="External DB and Datasource" style="rounded=0;whiteSpace=wrap;html=1;" vertex="1" parent="1">
          <mxGeometry x="190" y="800" width="510" height="90" as="geometry" />
        </mxCell>
        <mxCell id="7HKfpn0sQZz-MwSm2kJX-74" value="" style="image;aspect=fixed;perimeter=ellipsePerimeter;html=1;align=center;shadow=0;dashed=0;spacingTop=3;image=img/lib/active_directory/databases.svg;" vertex="1" parent="1">
          <mxGeometry x="294.6" y="820.5" width="50" height="49" as="geometry" />
        </mxCell>
        <mxCell id="7HKfpn0sQZz-MwSm2kJX-75" value="" style="image;aspect=fixed;perimeter=ellipsePerimeter;html=1;align=center;shadow=0;dashed=0;fontColor=#4277BB;labelBackgroundColor=default;fontSize=12;spacingTop=3;image=img/lib/ibm/data/data_sources.svg;" vertex="1" parent="1">
          <mxGeometry x="555" y="809.5" width="60" height="60" as="geometry" />
        </mxCell>
        <mxCell id="7HKfpn0sQZz-MwSm2kJX-76" style="edgeStyle=orthogonalEdgeStyle;rounded=0;orthogonalLoop=1;jettySize=auto;html=1;exitX=0.5;exitY=1;exitDx=0;exitDy=0;entryX=0.463;entryY=-0.011;entryDx=0;entryDy=0;entryPerimeter=0;" edge="1" parent="1" source="7HKfpn0sQZz-MwSm2kJX-6" target="7HKfpn0sQZz-MwSm2kJX-73">
          <mxGeometry relative="1" as="geometry" />
        </mxCell>
        <mxCell id="7HKfpn0sQZz-MwSm2kJX-77" style="edgeStyle=orthogonalEdgeStyle;rounded=0;orthogonalLoop=1;jettySize=auto;html=1;exitX=0.5;exitY=1;exitDx=0;exitDy=0;entryX=0.557;entryY=-0.044;entryDx=0;entryDy=0;entryPerimeter=0;" edge="1" parent="1" source="7HKfpn0sQZz-MwSm2kJX-7" target="7HKfpn0sQZz-MwSm2kJX-73">
          <mxGeometry relative="1" as="geometry" />
        </mxCell>
      </root>
    </mxGraphModel>
  </diagram>
</mxfile>
